<svg xmlns="http://www.w3.org/2000/svg" version="1.1" xmlns:xlink="http://www.w3.org/1999/xlink" xmlns:svgjs="http://svgjs.dev/svgjs" viewBox="0 0 800 800"><g transform="matrix(1,0,0,1,0,0)"><polygon points="684,634 634,734 734,734" stroke-width="4" stroke="#ffffff" fill="none" opacity="0.1" transform="rotate(00, 400, 400)"></polygon><polygon points="682.2758347083783,621.9827601991851 630.0516967773438,726.4310360612541 734.4999726394127,726.4310360612541" stroke-width="4.086206896551724" stroke="#fefefe" fill="none" opacity="0.1310344827586207" transform="rotate(94.93103448275862, 400, 400)"></polygon><polygon points="680.5517304519127,609.9655165836729 626.1034545898438,718.8620683078108 735.0000063139817,718.8620683078108" stroke-width="4.172413793103448" stroke="#fcfdfd" fill="none" opacity="0.16206896551724137" transform="rotate(89.86206896551724, 400, 400)"></polygon><polygon points="678.827565160291,597.948276782858 622.1551513671875,711.2931043690648 735.4999789533944,711.2931043690648" stroke-width="4.258620689655173" stroke="#fbfbfc" fill="none" opacity="0.19310344827586207" transform="rotate(84.79310344827586, 400, 400)"></polygon><polygon points="677.1034609038254,585.9310331673457 618.2069091796875,703.7241366156215 736.0000126279633,703.7241366156215" stroke-width="4.344827586206897" stroke="#fafafb" fill="none" opacity="0.22413793103448276" transform="rotate(79.72413793103448, 400, 400)"></polygon><polygon points="675.3792956122037,573.9137933665309 614.2586059570312,696.1551726768757 736.499985267376,696.1551726768757" stroke-width="4.431034482758621" stroke="#f8f9fa" fill="none" opacity="0.25517241379310346" transform="rotate(74.65517241379311, 400, 400)"></polygon><polygon points="673.6551913557381,561.896553565716 610.3103637695312,688.5862087381297 737.0000189419451,688.5862087381297" stroke-width="4.517241379310345" stroke="#f7f8f9" fill="none" opacity="0.28620689655172415" transform="rotate(69.58620689655173, 400, 400)"></polygon><polygon points="671.9310260641164,549.879313764901 606.362060546875,681.0172447993838 737.4999915813578,681.0172447993838" stroke-width="4.603448275862069" stroke="#f6f6f8" fill="none" opacity="0.3172413793103448" transform="rotate(64.51724137931035, 400, 400)"></polygon><polygon points="670.2069218076508,537.8620663346916 602.413818359375,673.4482732312433 738.0000252559267,673.4482732312433" stroke-width="4.689655172413794" stroke="#f4f5f7" fill="none" opacity="0.34827586206896555" transform="rotate(59.44827586206897, 400, 400)"></polygon><polygon points="668.4827565160291,525.8448265338766 598.4655151367188,665.8793092924973 738.4999978953394,665.8793092924973" stroke-width="4.775862068965518" stroke="#f3f4f6" fill="none" opacity="0.3793103448275862" transform="rotate(54.37931034482759, 400, 400)"></polygon><polygon points="666.7585912244074,513.8275867330617 594.5172119140625,658.3103453537514 738.9999705347522,658.3103453537514" stroke-width="4.862068965517241" stroke="#f1f3f5" fill="none" opacity="0.41034482758620694" transform="rotate(49.310344827586206, 400, 400)"></polygon><polygon points="665.0344869679418,501.81034693224683 590.5689697265625,650.7413814150054 739.5000042093211,650.7413814150054" stroke-width="4.948275862068965" stroke="#f0f1f4" fill="none" opacity="0.4413793103448276" transform="rotate(44.24137931034483, 400, 400)"></polygon><polygon points="663.3103216763201,489.79310713143184 586.6206665039062,643.1724174762594 739.9999768487338,643.1724174762594" stroke-width="5.0344827586206895" stroke="#eff0f3" fill="none" opacity="0.4724137931034482" transform="rotate(39.17241379310345, 400, 400)"></polygon><polygon points="661.5862174198545,477.77585970122243 582.6724243164062,635.6034459081189 740.5000105233028,635.6034459081189" stroke-width="5.120689655172414" stroke="#edeff2" fill="none" opacity="0.503448275862069" transform="rotate(34.10344827586208, 400, 400)"></polygon><polygon points="659.8620521282328,465.75861990040744 578.72412109375,628.034481969373 740.9999831627156,628.034481969373" stroke-width="5.206896551724138" stroke="#ecedf1" fill="none" opacity="0.5344827586206896" transform="rotate(29.034482758620697, 400, 400)"></polygon><polygon points="658.1379478717672,453.74138009959256 574.77587890625,620.4655180306271 741.5000168372845,620.4655180306271" stroke-width="5.293103448275862" stroke="#eaecf0" fill="none" opacity="0.5655172413793104" transform="rotate(23.965517241379317, 400, 400)"></polygon><polygon points="656.4137825801455,441.7241402987777 570.8275756835938,612.8965540918812 741.9999894766971,612.8965540918812" stroke-width="5.379310344827586" stroke="#e9ebef" fill="none" opacity="0.596551724137931" transform="rotate(18.896551724137936, 400, 400)"></polygon><polygon points="654.6896783236799,429.70689286856816 566.8793334960938,605.3275825237406 742.5000231512662,605.3275825237406" stroke-width="5.4655172413793105" stroke="#e7e9ee" fill="none" opacity="0.6275862068965516" transform="rotate(13.827586206896555, 400, 400)"></polygon><polygon points="652.9655130320582,417.6896530677533 562.9310302734375,597.7586185849947 742.9999957906789,597.7586185849947" stroke-width="5.551724137931035" stroke="#e6e8ed" fill="none" opacity="0.6586206896551724" transform="rotate(8.758620689655174, 400, 400)"></polygon><polygon points="651.2414087755926,405.6724132669383 558.9827880859375,590.1896546462486 743.5000294652478,590.1896546462486" stroke-width="5.637931034482759" stroke="#e4e7ec" fill="none" opacity="0.689655172413793" transform="rotate(3.6896551724137936, 400, 400)"></polygon><polygon points="649.5172434839709,393.6551734661234 555.0344848632812,582.6206907075027 744.0000021046606,582.6206907075027" stroke-width="5.724137931034483" stroke="#e3e5eb" fill="none" opacity="0.7206896551724138" transform="rotate(-1.3793103448275872, 400, 400)"></polygon><polygon points="647.7930781923492,381.6379336653085 551.086181640625,575.0517267687567 744.4999747440733,575.0517267687567" stroke-width="5.810344827586207" stroke="#e1e4ea" fill="none" opacity="0.7517241379310344" transform="rotate(-6.448275862068954, 400, 400)"></polygon><polygon points="646.0689739358836,369.620686235099 547.137939453125,567.4827552006162 745.0000084186422,567.4827552006162" stroke-width="5.896551724137931" stroke="#e0e3e9" fill="none" opacity="0.7827586206896552" transform="rotate(-11.517241379310335, 400, 400)"></polygon><polygon points="644.3448086442619,357.60344643428414 543.1896362304688,559.9137912618703 745.4999810580549,559.9137912618703" stroke-width="5.982758620689655" stroke="#dee1e8" fill="none" opacity="0.8137931034482758" transform="rotate(-16.586206896551715, 400, 400)"></polygon><polygon points="642.6207043877963,345.58620663346915 539.2413940429688,552.3448273231243 746.000014732624,552.3448273231243" stroke-width="6.068965517241379" stroke="#dde0e6" fill="none" opacity="0.8448275862068965" transform="rotate(-21.655172413793096, 400, 400)"></polygon><polygon points="640.8965390961746,333.56896683265427 535.2930908203125,544.7758633843785 746.4999873720367,544.7758633843785" stroke-width="6.155172413793103" stroke="#dbdfe5" fill="none" opacity="0.8758620689655172" transform="rotate(-26.724137931034477, 400, 400)"></polygon><polygon points="639.172434839709,321.55172703183933 531.3448486328125,537.2068994456324 747.0000210466055,537.2068994456324" stroke-width="6.241379310344827" stroke="#dadde4" fill="none" opacity="0.9068965517241379" transform="rotate(-31.793103448275843, 400, 400)"></polygon><polygon points="637.4482695480873,309.53447960162987 527.3965454101562,529.637927877492 747.4999936860183,529.637927877492" stroke-width="6.327586206896552" stroke="#d8dce3" fill="none" opacity="0.9379310344827586" transform="rotate(-36.86206896551724, 400, 400)"></polygon><polygon points="635.7241652916217,297.51723980081493 523.4483032226562,522.068963938746 748.0000273605873,522.068963938746" stroke-width="6.413793103448276" stroke="#d7dae2" fill="none" opacity="0.9689655172413792" transform="rotate(-41.931034482758605, 400, 400)"></polygon><polygon points="634,285.5 519.5,514.5 748.5,514.5" stroke-width="6.5" stroke="#d5d9e1" fill="none" opacity="1" transform="rotate(-47, 400, 400)"></polygon></g></svg>